<?xml version="1.0" standalone="no"?>
<!DOCTYPE svg PUBLIC "-//W3C//DTD SVG 20010904//EN"
 "http://www.w3.org/TR/2001/REC-SVG-20010904/DTD/svg10.dtd">
<svg version="1.0" xmlns="http://www.w3.org/2000/svg"
 width="700.000000pt" height="700.000000pt" viewBox="0 0 700.000000 700.000000"
 preserveAspectRatio="xMidYMid meet">
<metadata>
Created by potrace 1.11, written by Peter Selinger 2001-2013
</metadata>
<g transform="translate(0.000000,700.000000) scale(0.100000,-0.100000)"
fill="#000000" stroke="none">
<path d="M2626 6409 c-174 -41 -339 -213 -376 -394 -6 -30 -16 -55 -22 -55 -6
0 -40 -14 -76 -32 -215 -106 -314 -385 -201 -567 12 -19 11 -23 -11 -38 -83
-56 -168 -180 -194 -281 -10 -37 -19 -50 -51 -68 -197 -110 -274 -334 -181
-525 13 -25 12 -27 -26 -43 -61 -28 -71 -59 -63 -188 3 -60 8 -118 10 -128 2
-11 6 -53 10 -95 3 -42 7 -95 10 -118 7 -74 17 -181 20 -222 6 -85 16 -201 20
-230 2 -16 7 -66 10 -110 4 -44 9 -98 11 -120 2 -22 6 -65 8 -95 3 -30 8 -82
11 -115 5 -64 15 -181 21 -230 1 -16 6 -68 9 -115 12 -144 24 -278 30 -335 2
-22 7 -71 10 -110 3 -38 7 -88 10 -110 2 -22 6 -67 9 -100 14 -159 18 -211 21
-225 1 -8 6 -59 10 -112 3 -54 8 -110 10 -125 2 -16 6 -64 10 -108 6 -81 12
-147 20 -220 2 -22 7 -76 10 -120 3 -44 7 -96 10 -115 2 -19 7 -63 10 -97 14
-162 18 -190 31 -218 8 -17 28 -39 45 -49 30 -18 99 -19 1700 -18 1564 0 1669
1 1697 17 43 26 59 61 67 145 16 191 29 335 40 450 9 91 14 151 20 235 3 44 8
91 10 105 2 14 7 61 10 105 3 44 8 98 10 120 13 147 16 185 20 225 5 45 10
101 20 220 3 36 7 81 10 100 2 19 6 71 10 115 3 44 8 100 10 125 10 97 22 229
30 335 3 39 8 86 10 105 3 19 7 69 11 110 3 41 7 91 9 110 2 19 6 69 10 110 3
41 8 91 10 110 2 19 6 71 10 115 3 44 8 94 9 110 2 17 7 68 10 115 4 47 9 96
11 110 2 14 6 64 10 111 3 47 7 95 9 106 3 11 7 69 11 130 8 115 -3 162 -40
177 -11 4 -14 13 -9 31 27 109 -24 279 -109 358 -74 69 -189 127 -252 127 -14
0 -25 3 -25 7 0 3 18 24 40 45 146 143 186 350 101 516 -68 133 -220 225 -383
231 -13 1 -18 10 -18 34 0 98 -63 237 -143 316 -69 68 -100 87 -176 111 -109
34 -233 22 -359 -35 -116 -53 -353 -209 -432 -284 -35 -33 -40 -35 -40 -17 0
12 -7 42 -14 67 -45 147 -149 252 -301 304 -51 18 -191 27 -233 16 -18 -5 -34
4 -80 49 -125 121 -316 176 -476 139z"/>
</g>
</svg>
