<?xml version="1.0" standalone="no"?>
<!DOCTYPE svg PUBLIC "-//W3C//DTD SVG 20010904//EN"
 "http://www.w3.org/TR/2001/REC-SVG-20010904/DTD/svg10.dtd">
<svg version="1.0" xmlns="http://www.w3.org/2000/svg"
 width="700.000000pt" height="700.000000pt" viewBox="0 0 700.000000 700.000000"
 preserveAspectRatio="xMidYMid meet">
<metadata>
Created by potrace 1.11, written by Peter Selinger 2001-2013
</metadata>
<g transform="translate(0.000000,700.000000) scale(0.100000,-0.100000)"
fill="#000000" stroke="none">
<path d="M3400 6993 c-249 -39 -465 -196 -571 -415 l-23 -47 -47 35 c-60 44
-138 79 -215 97 -75 18 -213 15 -279 -5 -174 -54 -315 -180 -377 -338 -38 -97
-40 -106 -44 -204 -1 -50 -3 -94 -3 -98 -1 -5 -8 -8 -16 -8 -50 0 -157 -86
-188 -152 -16 -33 -22 -37 -78 -47 -179 -31 -328 -168 -375 -346 -16 -59 -18
-162 -3 -225 12 -53 62 -156 91 -186 l20 -22 -70 -52 c-85 -64 -116 -113 -116
-190 -1 -66 -5 -33 89 -780 4 -25 8 -58 10 -75 3 -16 18 -142 35 -280 17 -137
32 -263 35 -280 2 -16 11 -88 20 -160 8 -71 17 -143 20 -160 2 -16 11 -88 20
-160 8 -71 17 -146 20 -165 8 -55 35 -271 40 -315 4 -35 12 -100 40 -325 3
-25 8 -61 10 -80 2 -19 11 -91 19 -160 9 -69 19 -145 22 -170 3 -25 9 -74 14
-110 5 -36 11 -90 15 -120 3 -30 8 -66 10 -80 3 -14 7 -47 10 -75 3 -27 7 -61
9 -75 3 -14 7 -52 11 -85 3 -33 12 -107 20 -165 8 -58 16 -125 19 -150 8 -65
36 -290 41 -325 2 -16 11 -88 20 -160 19 -160 18 -152 38 -197 20 -48 69 -95
121 -119 40 -18 102 -18 1721 -16 1609 2 1681 3 1714 20 87 48 123 112 136
242 3 22 7 56 10 75 3 19 7 55 10 80 5 43 7 61 20 155 2 22 7 63 10 90 3 28 8
61 10 75 2 14 7 50 10 80 3 30 7 66 10 80 2 14 7 50 10 80 3 30 8 66 10 80 2
14 7 50 10 80 3 30 8 66 10 80 3 14 7 48 10 75 3 28 7 66 10 85 3 19 7 53 10
75 12 102 16 132 20 165 8 59 34 272 40 318 19 162 26 212 30 242 2 14 7 50
10 80 3 30 8 66 10 80 2 14 6 50 10 80 3 30 8 66 10 80 4 26 16 117 20 160 2
27 14 120 20 160 2 14 7 48 10 75 3 28 10 86 15 130 6 44 13 98 16 120 2 22 6
56 9 75 3 19 7 54 10 78 9 77 14 116 24 197 6 44 13 100 16 125 10 80 15 124
20 160 2 19 7 53 9 75 3 22 8 60 11 85 3 25 7 61 10 81 3 20 8 55 10 79 2 24
7 60 10 81 3 22 7 56 10 77 7 63 25 205 30 242 13 94 16 119 22 175 22 179 -1
233 -139 327 l-46 32 28 56 c55 109 72 216 54 347 -28 213 -191 402 -409 475
-29 10 -39 19 -42 38 -7 52 -45 138 -81 182 -46 58 -129 114 -198 134 -38 11
-53 21 -58 37 -3 12 -23 49 -44 82 -161 247 -500 291 -717 94 l-52 -48 -12 42
c-7 23 -27 70 -44 105 -36 74 -69 97 -130 89 -35 -5 -42 -2 -67 27 -16 18 -56
52 -89 76 -51 37 -60 48 -56 68 6 33 -17 85 -46 103 -58 38 -288 68 -389 52z"/>
<path d="M495 4229 c-98 -34 -161 -90 -206 -184 -24 -51 -35 -63 -67 -74 -82
-29 -164 -116 -196 -208 -23 -66 -16 -186 15 -253 68 -146 239 -228 396 -191
45 11 52 10 96 -14 108 -61 220 -66 324 -15 160 79 235 264 174 427 -12 33
-33 72 -46 89 -14 16 -29 34 -33 39 -5 6 -9 35 -10 65 -1 146 -124 299 -258
325 -84 15 -130 14 -189 -6z"/>
<path d="M6580 2876 c-70 -15 -115 -38 -165 -86 -37 -35 -45 -38 -110 -42
-129 -7 -239 -81 -294 -198 -22 -46 -26 -69 -26 -145 0 -78 4 -97 28 -147 31
-63 109 -140 166 -164 20 -9 62 -20 93 -26 40 -7 59 -15 63 -28 3 -10 25 -37
48 -61 114 -117 291 -139 428 -53 132 83 193 242 147 387 -10 33 -8 47 12 108
44 134 14 266 -83 363 -46 46 -117 83 -175 92 -20 3 -46 7 -57 8 -11 2 -45 -2
-75 -8z"/>
</g>
</svg>
